<svg width="83" height="20" viewBox="0 0 83 20" fill="none" xmlns="http://www.w3.org/2000/svg">
    <path
        d="M3.5 17.5C3.01875 17.5 2.60677 17.3286 2.26406 16.9859C1.92135 16.6432 1.75 16.2312 1.75 15.75V12.7969C1.75 12.6365 1.80104 12.4979 1.90313 12.3813C2.00521 12.2646 2.13646 12.1917 2.29688 12.1625C2.64688 12.0458 2.9349 11.8344 3.16094 11.5281C3.38698 11.2219 3.5 10.8792 3.5 10.5C3.5 10.1208 3.38698 9.77813 3.16094 9.47188C2.9349 9.16563 2.64688 8.95417 2.29688 8.8375C2.13646 8.80833 2.00521 8.73542 1.90313 8.61875C1.80104 8.50208 1.75 8.36354 1.75 8.20312V5.25C1.75 4.76875 1.92135 4.35677 2.26406 4.01406C2.60677 3.67135 3.01875 3.5 3.5 3.5H17.5C17.9813 3.5 18.3932 3.67135 18.7359 4.01406C19.0786 4.35677 19.25 4.76875 19.25 5.25V8.20312C19.25 8.36354 19.199 8.50208 19.0969 8.61875C18.9948 8.73542 18.8635 8.80833 18.7031 8.8375C18.3531 8.95417 18.0651 9.16563 17.8391 9.47188C17.613 9.77813 17.5 10.1208 17.5 10.5C17.5 10.8792 17.613 11.2219 17.8391 11.5281C18.0651 11.8344 18.3531 12.0458 18.7031 12.1625C18.8635 12.1917 18.9948 12.2646 19.0969 12.3813C19.199 12.4979 19.25 12.6365 19.25 12.7969V15.75C19.25 16.2312 19.0786 16.6432 18.7359 16.9859C18.3932 17.3286 17.9813 17.5 17.5 17.5H3.5ZM3.5 15.75H17.5V13.5188C16.9604 13.1979 16.5339 12.7714 16.2203 12.2391C15.9068 11.7068 15.75 11.1271 15.75 10.5C15.75 9.87292 15.9068 9.29323 16.2203 8.76094C16.5339 8.22865 16.9604 7.80208 17.5 7.48125V5.25H3.5V7.48125C4.03958 7.80208 4.46615 8.22865 4.77969 8.76094C5.09323 9.29323 5.25 9.87292 5.25 10.5C5.25 11.1271 5.09323 11.7068 4.77969 12.2391C4.46615 12.7714 4.03958 13.1979 3.5 13.5188V15.75ZM10.5 14.875C10.7479 14.875 10.9557 14.7911 11.1234 14.6234C11.2911 14.4557 11.375 14.2479 11.375 14C11.375 13.7521 11.2911 13.5443 11.1234 13.3766C10.9557 13.2089 10.7479 13.125 10.5 13.125C10.2521 13.125 10.0443 13.2089 9.87656 13.3766C9.70885 13.5443 9.625 13.7521 9.625 14C9.625 14.2479 9.70885 14.4557 9.87656 14.6234C10.0443 14.7911 10.2521 14.875 10.5 14.875ZM10.5 11.375C10.7479 11.375 10.9557 11.2911 11.1234 11.1234C11.2911 10.9557 11.375 10.7479 11.375 10.5C11.375 10.2521 11.2911 10.0443 11.1234 9.87656C10.9557 9.70885 10.7479 9.625 10.5 9.625C10.2521 9.625 10.0443 9.70885 9.87656 9.87656C9.70885 10.0443 9.625 10.2521 9.625 10.5C9.625 10.7479 9.70885 10.9557 9.87656 11.1234C10.0443 11.2911 10.2521 11.375 10.5 11.375ZM10.5 7.875C10.7479 7.875 10.9557 7.79115 11.1234 7.62344C11.2911 7.45573 11.375 7.24792 11.375 7C11.375 6.75208 11.2911 6.54427 11.1234 6.37656C10.9557 6.20885 10.7479 6.125 10.5 6.125C10.2521 6.125 10.0443 6.20885 9.87656 6.37656C9.70885 6.54427 9.625 6.75208 9.625 7C9.625 7.24792 9.70885 7.45573 9.87656 7.62344C10.0443 7.79115 10.2521 7.875 10.5 7.875Z"
        fill="currentColor" />
    <path
        d="M31.7165 16.4375L28.0805 7.5635H30.5285L32.6165 13.5215L34.7405 7.5635H37.1525L33.5525 16.4375H31.7165ZM42.185 16.6175C41.417 16.6175 40.757 16.4915 40.205 16.2395C39.653 15.9875 39.197 15.6515 38.837 15.2315C38.489 14.7995 38.231 14.3135 38.063 13.7735C37.895 13.2215 37.811 12.6455 37.811 12.0455C37.811 11.4695 37.895 10.9055 38.063 10.3535C38.231 9.8015 38.483 9.3035 38.819 8.8595C39.155 8.4155 39.587 8.0615 40.115 7.7975C40.655 7.5215 41.297 7.3835 42.041 7.3835C42.737 7.3835 43.343 7.5035 43.859 7.7435C44.375 7.9715 44.801 8.2955 45.137 8.7155C45.473 9.1235 45.725 9.6035 45.893 10.1555C46.073 10.7075 46.163 11.2955 46.163 11.9195C46.163 12.0035 46.157 12.1235 46.145 12.2795C46.145 12.4235 46.133 12.5795 46.109 12.7475H40.043C40.103 13.3835 40.337 13.8635 40.745 14.1875C41.165 14.5115 41.687 14.6735 42.311 14.6735C42.767 14.6735 43.211 14.5955 43.643 14.4395C44.075 14.2715 44.459 14.0375 44.795 13.7375L45.911 15.2495C45.491 15.5735 45.095 15.8375 44.723 16.0415C44.351 16.2455 43.961 16.3895 43.553 16.4735C43.157 16.5695 42.701 16.6175 42.185 16.6175ZM43.949 11.6315C43.973 11.5355 43.991 11.4395 44.003 11.3435C44.027 11.2475 44.039 11.1575 44.039 11.0735C44.039 10.8215 43.991 10.5875 43.895 10.3715C43.799 10.1435 43.667 9.9455 43.499 9.7775C43.331 9.6095 43.127 9.4835 42.887 9.3995C42.659 9.3035 42.395 9.2555 42.095 9.2555C41.651 9.2555 41.279 9.3455 40.979 9.5255C40.679 9.7055 40.451 9.9395 40.295 10.2275C40.151 10.5035 40.061 10.7915 40.025 11.0915H44.705L43.949 11.6315ZM47.9632 16.4375V7.5635H50.2132V9.9755L49.8712 10.0115C49.9072 9.4955 50.0632 9.0395 50.3392 8.6435C50.6152 8.2475 50.9512 7.9415 51.3472 7.7255C51.7552 7.4975 52.1692 7.3835 52.5892 7.3835C52.8892 7.3835 53.1712 7.4255 53.4352 7.5095C53.7112 7.5815 53.9932 7.7075 54.2812 7.8875L53.2012 9.9035C53.0692 9.8315 52.9012 9.7655 52.6972 9.7055C52.4932 9.6455 52.2892 9.6155 52.0852 9.6155C51.8452 9.6155 51.6112 9.6575 51.3832 9.7415C51.1672 9.8255 50.9692 9.9575 50.7892 10.1375C50.6212 10.3175 50.4832 10.5575 50.3752 10.8575C50.3272 11.0255 50.2852 11.2415 50.2492 11.5055C50.2252 11.7575 50.2132 12.1295 50.2132 12.6215V16.4375H47.9632ZM55.6093 16.4375V7.5635H57.8413V16.4375H55.6093ZM55.5373 6.1955V3.8915H57.9313V6.1955H55.5373ZM60.7234 16.4375V9.3095H59.1214V7.5635H60.7414V6.6275C60.7414 5.8595 60.8674 5.2655 61.1194 4.8455C61.3714 4.4255 61.7074 4.1315 62.1274 3.9635C62.5594 3.7955 63.0214 3.7115 63.5134 3.7115C63.8854 3.7115 64.2034 3.7475 64.4674 3.8195C64.7434 3.8795 65.0074 3.9695 65.2594 4.0895L64.5394 5.7995C64.4194 5.7395 64.2934 5.6915 64.1614 5.6555C64.0294 5.6075 63.8974 5.5835 63.7654 5.5835C63.4774 5.5835 63.2734 5.6795 63.1534 5.8715C63.0334 6.0635 62.9734 6.3215 62.9734 6.6455V7.5635H64.8634V9.3095H62.9734V16.4375H60.7234ZM66.4052 16.4375V3.8915H68.7272V16.4375H66.4052ZM76.6417 16.7255C75.4537 16.7255 74.4037 16.4495 73.4917 15.8975C72.5917 15.3455 71.8897 14.5775 71.3857 13.5935C70.8817 12.6095 70.6297 11.4635 70.6297 10.1555C70.6297 8.8475 70.8817 7.7075 71.3857 6.7355C71.8897 5.7515 72.5917 4.9835 73.4917 4.4315C74.4037 3.8795 75.4537 3.6035 76.6417 3.6035C77.9737 3.6035 79.1197 3.9395 80.0797 4.6115C81.0517 5.2715 81.7477 6.1835 82.1677 7.3475L79.9717 8.1575C79.7077 7.4255 79.2877 6.8555 78.7117 6.4475C78.1477 6.0395 77.4577 5.8355 76.6417 5.8355C75.8977 5.8355 75.2437 6.0095 74.6797 6.3575C74.1277 6.7055 73.7017 7.2035 73.4017 7.8515C73.1137 8.4875 72.9697 9.2555 72.9697 10.1555C72.9697 11.0555 73.1137 11.8295 73.4017 12.4775C73.7017 13.1255 74.1277 13.6235 74.6797 13.9715C75.2437 14.3195 75.8977 14.4935 76.6417 14.4935C77.4577 14.4935 78.1477 14.2895 78.7117 13.8815C79.2877 13.4735 79.7077 12.9035 79.9717 12.1715L82.1677 12.9635C81.7477 14.1275 81.0517 15.0455 80.0797 15.7175C79.1197 16.3895 77.9737 16.7255 76.6417 16.7255Z"
        fill="currentColor" />
</svg>    