<svg width="722" height="683" viewBox="0 0 722 683" fill="none" xmlns="http://www.w3.org/2000/svg">
    <g opacity="0.5">
        <mask id="mask0_213_7643" style="mask-type:alpha" maskUnits="userSpaceOnUse" x="0" y="0"
            width="722" height="683">
            <rect x="0.59375" y="0.474838" width="720.686" height="682.078" fill="#D9D9D9" />
        </mask>
        <g mask="url(#mask0_213_7643)">
            <path
                d="M117.508 591.262C101.182 591.262 87.2061 585.449 75.5801 573.823C63.9541 562.197 58.1411 548.221 58.1411 531.895L58.1411 431.714C58.1411 426.272 59.8726 421.572 63.3357 417.614C66.7988 413.656 71.2513 411.183 76.6932 410.193C88.5666 406.235 98.3374 399.062 106.006 388.673C113.674 378.283 117.508 366.657 117.508 353.795C117.508 340.932 113.674 329.306 106.006 318.917C98.3374 308.527 88.5666 301.354 76.6932 297.396C71.2513 296.407 66.7988 293.933 63.3357 289.975C59.8726 286.018 58.1411 281.318 58.1411 275.876L58.1411 175.694C58.1411 159.368 63.9541 145.392 75.5801 133.766C87.2061 122.14 101.182 116.327 117.508 116.327L592.443 116.327C608.768 116.327 622.744 122.14 634.37 133.766C645.996 145.392 651.809 159.368 651.809 175.694L651.809 275.876C651.809 281.318 650.078 286.017 646.615 289.975C643.152 293.933 638.699 296.407 633.257 297.396C621.384 301.354 611.613 308.527 603.945 318.917C596.277 329.306 592.443 340.932 592.443 353.795C592.443 366.657 596.277 378.283 603.945 388.673C611.613 399.062 621.384 406.235 633.257 410.193C638.699 411.183 643.152 413.656 646.615 417.614C650.078 421.572 651.809 426.272 651.809 431.714L651.809 531.895C651.809 548.221 645.996 562.197 634.37 573.823C622.744 585.449 608.768 591.262 592.443 591.262L117.508 591.262ZM117.508 531.895L592.443 531.895L592.443 456.202C574.138 445.318 559.667 430.848 549.031 412.79C538.394 394.733 533.076 375.068 533.076 353.795C533.076 332.522 538.394 312.856 549.031 294.799C559.667 276.741 574.138 262.271 592.443 251.387L592.443 175.694L117.508 175.694L117.508 251.387C135.813 262.271 150.283 276.741 160.92 294.799C171.556 312.856 176.875 332.522 176.875 353.795C176.875 375.068 171.556 394.733 160.92 412.79C150.283 430.848 135.813 445.318 117.508 456.202L117.508 531.895ZM354.975 502.212C363.386 502.212 370.435 499.367 376.125 493.678C381.814 487.988 384.659 480.939 384.659 472.528C384.659 464.118 381.814 457.068 376.125 451.379C370.435 445.69 363.386 442.845 354.975 442.845C346.565 442.845 339.515 445.69 333.826 451.379C328.137 457.068 325.292 464.118 325.292 472.528C325.292 480.939 328.137 487.988 333.826 493.678C339.515 499.367 346.565 502.212 354.975 502.212ZM354.975 383.478C363.386 383.478 370.435 380.633 376.125 374.944C381.814 369.255 384.659 362.205 384.659 353.795C384.659 345.384 381.814 338.335 376.125 332.645C370.435 326.956 363.386 324.111 354.975 324.111C346.565 324.111 339.515 326.956 333.826 332.645C328.137 338.335 325.292 345.384 325.292 353.795C325.292 362.205 328.137 369.255 333.826 374.944C339.515 380.633 346.565 383.478 354.975 383.478ZM354.975 264.744C363.386 264.744 370.435 261.9 376.125 256.21C381.814 250.521 384.659 243.471 384.659 235.061C384.659 226.651 381.814 219.601 376.125 213.912C370.435 208.222 363.386 205.378 354.975 205.378C346.565 205.378 339.515 208.222 333.826 213.912C328.137 219.601 325.292 226.651 325.292 235.061C325.292 243.471 328.137 250.521 333.826 256.21C339.515 261.9 346.565 264.744 354.975 264.744Z"
                fill="url(#paint0_linear_213_7643)" />
        </g>
    </g>
    <defs>
        <linearGradient id="paint0_linear_213_7643" x1="354.975" y1="116.327" x2="354.975"
            y2="591.262" gradientUnits="userSpaceOnUse">
            <stop stop-color="currentColor" stop-opacity="0.25" />
            <stop offset="1" stop-color="currentColor" stop-opacity="0" />
        </linearGradient>
    </defs>
</svg>
    