<svg viewBox="0 0 63 64" fill="none" xmlns="http://www.w3.org/2000/svg">
    <path
        d="M62.97 32.5988C62.97 29.9768 62.7556 28.0633 62.2917 26.0791H32.1275V37.9137H49.8332C49.4764 40.8548 47.5488 45.284 43.265 48.2602L43.205 48.6564L52.7423 55.9903L53.4031 56.0558C59.4715 50.4927 62.97 42.3075 62.97 32.5988Z"
        fill="#4285F4" />
    <path
        d="M32.1275 63.7802C40.8018 63.7802 48.084 60.9454 53.4031 56.0557L43.265 48.2602C40.5521 50.1382 36.9109 51.4492 32.1275 51.4492C23.6316 51.4492 16.4208 45.8863 13.8504 38.1973L13.4736 38.229L3.55654 45.8472L3.42685 46.2051C8.70999 56.6224 19.562 63.7802 32.1275 63.7802Z"
        fill="#34A853" />
    <path
        d="M13.8504 38.1974C13.1722 36.2132 12.7796 34.087 12.7796 31.8903C12.7796 29.6933 13.1722 27.5673 13.8147 25.5831L13.7968 25.1605L3.75539 17.4199L3.42686 17.575C1.24942 21.898 0 26.7524 0 31.8903C0 37.0281 1.24942 41.8823 3.42686 46.2053L13.8504 38.1974Z"
        fill="#FBBC05" />
    <path
        d="M32.1275 12.3307C38.1603 12.3307 42.2297 14.9174 44.5501 17.079L53.6172 8.29142C48.0486 3.15359 40.8018 0 32.1275 0C19.562 0 8.70999 7.1575 3.42685 17.5748L13.8147 25.5829C16.4208 17.8939 23.6316 12.3307 32.1275 12.3307Z"
        fill="#EB4335" />
</svg>    