<svg width="84" height="78" viewBox="0 0 84 78" fill="none" xmlns="http://www.w3.org/2000/svg">
    <path
        d="M69.7414 31.2115C67.8373 29.8332 65.6803 28.8434 63.3936 28.2987C61.107 27.754 58.7354 27.6651 56.4143 28.037C54.0933 28.4089 51.8683 29.2343 49.8663 30.4662C47.8643 31.6981 46.1245 33.3123 44.7464 35.2165C38.9514 43.2215 40.7464 54.4115 48.7514 60.2065C51.7983 62.4176 55.4668 63.6077 59.2314 63.6065C64.7764 63.6065 70.2464 61.0365 73.7464 56.2015C79.5414 48.1965 77.7464 37.0065 69.7414 31.2115Z"
        fill="currentColor" />
    <path
        d="M53.2113 64.6716C51.1946 64.0266 49.2927 63.0664 47.5763 61.8266C45.458 60.2963 43.6623 58.3633 42.2919 56.1383C40.9216 53.9132 40.0035 51.4398 39.5901 48.8595C39.1768 46.2792 39.2764 43.6427 39.8832 41.1009C40.4899 38.5591 41.592 36.162 43.1263 34.0466C44.0782 32.7354 45.1845 31.5435 46.4213 30.4966C48.8005 28.495 51.6149 27.0777 54.6396 26.358C57.6644 25.6383 60.8155 25.6361 63.8413 26.3516V14.1016C62.3097 13.8785 60.764 13.7665 59.2163 13.7666C41.5863 13.7666 27.2913 28.0666 27.2913 45.6966C27.2913 63.3266 41.5863 77.6216 59.2163 77.6216C60.764 77.6217 62.3097 77.5097 63.8413 77.2866V65.0616C60.3286 65.9029 56.6528 65.7681 53.2113 64.6716Z"
        fill="currentColor" />
    <path
        d="M25.8314 20.1314C24.526 19.1932 23.4253 17.9989 22.5964 16.6214C22.3469 16.2064 22.1215 15.7774 21.9214 15.3364C6.07144 25.2464 -2.33856 39.4464 1.04644 50.0114C3.01644 56.1714 8.39644 59.3064 16.2414 59.8964H16.2464C16.2585 59.8953 16.2698 59.8898 16.2782 59.881C16.2866 59.8722 16.2916 59.8607 16.2922 59.8486C16.2928 59.8365 16.289 59.8245 16.2815 59.8149C16.274 59.8053 16.2634 59.7988 16.2514 59.7964C9.84144 58.7514 5.41144 55.7514 4.39644 51.7664C2.06644 42.6064 8.46144 29.8414 22.7464 20.2514V76.1614H43.0464V75.5214C42.0864 75.0014 41.1548 74.4364 40.2514 73.8264C34.7981 70.1441 30.5292 64.9599 27.9614 58.9014C25.7607 53.7023 24.8943 48.0356 25.4409 42.4165C25.9875 36.7973 27.9299 31.4039 31.0914 26.7264C32.1609 25.1462 33.3601 23.6577 34.6764 22.2764C34.0774 22.3679 33.4724 22.4147 32.8664 22.4164C30.3384 22.4207 27.8745 21.6205 25.8314 20.1314Z"
        fill="currentColor" />
    <path
        d="M82.5763 16.8966C79.7613 8.96158 70.0563 4.49658 57.6613 4.49658C53.4063 4.49658 48.8313 5.02158 44.1113 6.11658C44.404 6.88607 44.6168 7.68359 44.7463 8.49658C44.8459 9.10654 44.8961 9.72355 44.8963 10.3416C49.9813 9.00658 54.8113 8.36658 59.2363 8.36658C68.4363 8.36658 75.8763 11.1266 80.1913 16.1116C83.6313 20.0866 83.0113 25.7666 81.3813 29.8816C81.3785 29.8895 81.3776 29.8981 81.3788 29.9064C81.3799 29.9148 81.3831 29.9228 81.388 29.9297C81.3929 29.9365 81.3994 29.9421 81.407 29.9459C81.4145 29.9498 81.4229 29.9517 81.4313 29.9516C81.4398 29.952 81.4481 29.9498 81.4553 29.9454C81.4624 29.9409 81.468 29.9343 81.4713 29.9266C83.6863 26.1366 84.0863 21.1566 82.5763 16.8966Z"
        fill="currentColor" />
    <path
        d="M38.7714 2.28147C37.7059 1.50944 36.4988 0.954956 35.2189 0.649696C33.939 0.344437 32.6115 0.29439 31.3122 0.502417C30.013 0.710443 28.7675 1.17246 27.6469 1.86208C26.5263 2.55169 25.5526 3.45537 24.7814 4.52147C21.5364 9.00147 22.5364 15.2665 27.0214 18.5115C28.0869 19.2835 29.2941 19.838 30.574 20.1432C31.8539 20.4485 33.1814 20.4986 34.4806 20.2905C35.7798 20.0825 37.0254 19.6205 38.1459 18.9309C39.2665 18.2413 40.2402 17.3376 41.0114 16.2715C44.2564 11.7915 43.2564 5.52647 38.7714 2.28147ZM32.9164 17.5115C31.5092 17.5115 30.1336 17.0942 28.9635 16.3124C27.7935 15.5306 26.8815 14.4194 26.343 13.1193C25.8045 11.8192 25.6636 10.3886 25.9381 9.0084C26.2127 7.62823 26.8903 6.36046 27.8854 5.36541C28.8804 4.37035 30.1482 3.69272 31.5284 3.41818C32.9085 3.14365 34.3391 3.28455 35.6392 3.82307C36.9393 4.36159 38.0505 5.27353 38.8323 6.44359C39.6141 7.61364 40.0314 8.98926 40.0314 10.3965C40.0299 12.283 39.2798 14.0919 37.9458 15.4258C36.6118 16.7598 34.803 17.5099 32.9164 17.5115Z"
        fill="currentColor" />
    <path
        d="M32.9163 15.5113C35.7412 15.5113 38.0313 13.2212 38.0313 10.3962C38.0313 7.57131 35.7412 5.28125 32.9163 5.28125C30.0913 5.28125 27.8013 7.57131 27.8013 10.3962C27.8013 13.2212 30.0913 15.5113 32.9163 15.5113Z"
        fill="currentColor" />
</svg>    