<svg width="187" height="52" viewBox="0 0 187 52" fill="none" xmlns="http://www.w3.org/2000/svg">
    <path
        d="M169.863 51.5383C169.863 51.8477 169.708 51.9989 169.411 51.9989H168.703C168.4 51.9989 168.252 51.8408 168.252 51.5383V20.7233C168.252 19.3692 168.488 18.1594 168.96 17.1146C169.407 16.0953 170.081 15.1963 170.929 14.4888C171.798 13.772 172.79 13.2265 173.855 12.8803C174.999 12.5053 176.194 12.3173 177.395 12.3235C178.586 12.3146 179.77 12.5027 180.901 12.8803C181.948 13.2254 182.921 13.7713 183.767 14.4888C184.597 15.2129 185.268 16.1077 185.736 17.1146C186.228 18.1594 186.478 19.3692 186.478 20.7233V31.2401C186.478 32.5943 186.235 33.804 185.736 34.8489C185.237 35.8937 184.583 36.7804 183.767 37.4746C182.921 38.1921 181.948 38.738 180.901 39.0831C179.77 39.4602 178.586 39.6483 177.395 39.6399C176.37 39.6399 175.5 39.5505 174.819 39.3718C174.232 39.2339 173.661 39.0359 173.113 38.7806C172.662 38.5676 172.291 38.3613 171.987 38.1895C171.684 38.0177 171.407 37.9214 171.144 37.9214C170.538 37.9214 170.18 38.0933 170.052 38.4438C169.924 38.7944 169.857 39.2756 169.857 39.8942L169.863 51.5383ZM177.408 13.9526C176.469 13.9531 175.535 14.0967 174.637 14.3788C173.766 14.6457 172.948 15.0693 172.223 15.6298C171.505 16.1895 170.922 16.9089 170.517 17.7332C170.086 18.5924 169.87 19.5822 169.87 20.7164V31.4257C169.87 32.5668 170.099 33.5497 170.544 34.3814C170.969 35.185 171.563 35.8823 172.284 36.423C173.014 36.9591 173.831 37.3594 174.698 37.6052C175.578 37.8671 176.491 37.999 177.408 37.997C178.317 37.9955 179.22 37.8517 180.085 37.5709C180.945 37.2994 181.75 36.8759 182.466 36.3198C183.187 35.7541 183.78 35.0367 184.205 34.2165C184.657 33.3641 184.879 32.3674 184.879 31.2333V20.7233C184.879 19.5822 184.65 18.5855 184.205 17.7401C183.784 16.9171 183.19 16.1989 182.466 15.6367C181.748 15.0845 180.943 14.6615 180.085 14.3857C179.221 14.1003 178.317 13.9542 177.408 13.9526Z"
        fill="currentColor" />
    <path
        d="M144.793 15.4033C144.962 15.4033 145.191 15.2383 145.468 14.9152C145.815 14.5247 146.204 14.1743 146.627 13.8704C147.12 13.4993 147.747 13.1487 148.495 12.8256C149.244 12.5026 150.161 12.3376 151.239 12.3376C152.235 12.333 153.224 12.498 154.166 12.8256C155.069 13.1356 155.902 13.629 156.613 14.276C157.318 14.9038 157.888 15.6738 158.286 16.5375C158.697 17.4104 158.899 18.4002 158.899 19.4932V38.8772C158.899 39.1865 158.744 39.3377 158.448 39.3377H157.74C157.436 39.3377 157.288 39.1865 157.288 38.8772V19.8025C157.288 17.6991 156.733 16.1983 155.622 15.3002C154.51 14.3997 153.127 13.9529 151.462 13.9529C149.668 13.9529 148.248 14.402 147.201 15.3002C146.155 16.2006 145.634 17.7014 145.636 19.8025V38.8566C145.636 39.1659 145.481 39.3171 145.184 39.3171H144.497C144.18 39.3171 144.025 39.1659 144.025 38.8566V19.8025C144.025 17.6991 143.492 16.2006 142.447 15.3002C141.395 14.3997 139.968 13.9506 138.165 13.9529C136.493 13.9529 135.097 14.402 133.978 15.3002C132.859 16.2006 132.306 17.6991 132.306 19.8025V38.8566C132.306 39.1659 132.151 39.3171 131.854 39.3171H131.146C130.842 39.3171 130.694 39.1659 130.694 38.8566V19.4725C130.694 18.3727 130.896 17.3898 131.308 16.5168C131.708 15.6546 132.277 14.885 132.98 14.2554C133.698 13.618 134.529 13.1258 135.428 12.805C136.37 12.4779 137.359 12.313 138.354 12.317C139.433 12.317 140.336 12.4819 141.098 12.805C141.757 13.0824 142.383 13.4328 142.966 13.8498C143.387 14.1557 143.776 14.5059 144.126 14.8946C144.395 15.2383 144.625 15.4033 144.793 15.4033Z"
        fill="currentColor" />
    <path
        d="M121.976 31.2333C121.976 32.5874 121.74 33.7972 121.268 34.842C120.82 35.8612 120.146 36.7602 119.299 37.4678C118.438 38.1815 117.455 38.7268 116.399 39.0762C114.128 39.8186 111.685 39.8186 109.414 39.0762C108.354 38.7375 107.369 38.1911 106.514 37.4678C105.684 36.7436 105.013 35.8488 104.545 34.842C104.046 33.7972 103.804 32.5874 103.804 31.2333V20.7233C103.804 19.3692 104.046 18.1594 104.545 17.1146C105.009 16.1052 105.681 15.2096 106.514 14.4888C107.369 13.7654 108.354 13.219 109.414 12.8803C110.537 12.5084 111.712 12.3205 112.893 12.3235C114.084 12.3146 115.268 12.5027 116.399 12.8803C117.455 13.2297 118.438 13.7751 119.299 14.4888C120.142 15.1899 120.789 16.0697 121.268 17.1146C121.74 18.1594 121.976 19.3692 121.976 20.7233V31.2333ZM112.893 38.0039C113.812 37.9998 114.726 37.8562 115.604 37.5777C116.475 37.3109 117.293 36.8872 118.018 36.3267C118.736 35.767 119.319 35.0476 119.724 34.2233C120.155 33.3641 120.371 32.3743 120.371 31.2401V20.7233C120.371 19.5822 120.162 18.5855 119.724 17.7401C119.319 16.916 118.736 16.1967 118.018 15.6367C117.29 15.0802 116.473 14.6568 115.604 14.3857C113.84 13.8174 111.947 13.8174 110.182 14.3857C109.311 14.6525 108.493 15.0762 107.768 15.6367C107.05 16.1964 106.467 16.9158 106.063 17.7401C105.631 18.5993 105.415 19.5891 105.415 20.7233V31.2401C105.415 32.3812 105.624 33.3779 106.063 34.2233C106.467 35.0474 107.051 35.7667 107.768 36.3267C108.496 36.8833 109.313 37.3066 110.182 37.5777C111.06 37.8562 111.974 37.9998 112.893 38.0039Z"
        fill="currentColor" />
    <path
        d="M87.1827 39.6402C85.9811 39.648 84.7861 39.46 83.6427 39.0834C82.5828 38.7447 81.5979 38.1984 80.7433 37.475C79.9153 36.7567 79.2543 35.8598 78.8081 34.8492C78.3361 33.8044 78.1001 32.5946 78.1001 31.2405V20.7236C78.1001 19.3695 78.3361 18.1597 78.8081 17.1149C79.2525 16.1032 79.9138 15.2059 80.7433 14.4891C81.5979 13.7657 82.5828 13.2194 83.6427 12.8807C84.7864 12.5056 85.9812 12.3177 87.1827 12.3239C89.3808 12.3239 91.2621 12.8807 92.8534 13.9942C94.4447 15.1078 95.5168 16.7231 96.0765 18.8196C96.0765 19.1701 95.9214 19.342 95.6247 19.342H94.9167C94.7077 19.342 94.5526 19.2114 94.4649 18.9502C93.7772 16.9774 92.7658 15.6577 91.4374 14.9703C90.1178 14.2935 88.6598 13.9449 87.1827 13.953C86.2634 13.9571 85.3499 14.1007 84.4721 14.3791C83.6007 14.646 82.7831 15.0697 82.0581 15.6302C81.3399 16.1898 80.7565 16.9092 80.3522 17.7335C79.9207 18.5927 79.7049 19.5826 79.7049 20.7167V31.2336C79.7049 32.3746 79.9139 33.3713 80.3522 34.2168C80.7568 35.0409 81.3402 35.7602 82.0581 36.3202C82.7855 36.8767 83.6024 37.3 84.4721 37.5712C85.3496 37.8506 86.2633 37.9943 87.1827 37.9974C88.6594 38.0013 90.1164 37.6529 91.4374 36.9801C92.7658 36.2996 93.7749 34.9729 94.4649 33.0002C94.5459 32.7321 94.7009 32.6083 94.9167 32.6083H95.6247C95.9281 32.6083 96.0765 32.7802 96.0765 33.1308C95.5236 35.2341 94.4447 36.8426 92.8534 37.9561C91.2621 39.0697 89.3674 39.6402 87.1827 39.6402Z"
        fill="currentColor" />
    <path
        d="M68.1003 20.758C68.1003 19.61 67.8711 18.6133 67.4261 17.7541C66.9989 16.9232 66.3926 16.2017 65.6527 15.6439C64.8998 15.0871 64.0612 14.662 63.1713 14.386C62.2822 14.1058 61.3576 13.9599 60.427 13.9529C58.9817 13.9411 57.5557 14.2904 56.2734 14.9703C55.0058 15.6508 54.0303 16.9774 53.347 18.9502C53.3066 19.2182 53.1515 19.342 52.8953 19.342H52.1873C51.8838 19.342 51.7355 19.1701 51.7355 18.8196C52.2479 16.7162 53.2863 15.1077 54.8304 13.9942C56.3813 12.8806 58.2491 12.3239 60.4337 12.3239C61.6462 12.3182 62.852 12.5061 64.0074 12.8806C65.1402 13.2518 66.1382 13.788 66.9675 14.4891C67.8104 15.1902 68.4712 16.0701 68.9702 17.1149C69.4624 18.1597 69.7119 19.3695 69.7119 20.7236V31.6322C69.7119 32.9451 69.4759 34.1137 69.0039 35.1172C68.5505 36.0961 67.8896 36.9601 67.0687 37.6468C66.2528 38.3273 65.2818 38.8291 64.1693 39.159C63.0171 39.4878 61.8257 39.652 60.6293 39.6471C59.4676 39.6516 58.3092 39.5201 57.177 39.2552C56.0846 38.994 55.1136 38.5747 54.2775 37.9836C53.4533 37.4082 52.7684 36.6489 52.2749 35.7634C51.7759 34.8767 51.5332 33.8181 51.5332 32.5946C51.5332 30.065 52.2007 28.2756 53.5358 27.2262C54.8642 26.1814 56.4352 25.6521 58.2423 25.6521H66.8731C67.689 25.6521 68.1003 25.2328 68.1003 24.3942V20.758ZM68.1003 28.5459C68.1003 27.7142 67.689 27.2949 66.8731 27.2949H58.1749C57.5711 27.2949 56.9686 27.3501 56.3746 27.4599C55.7891 27.5607 55.2375 27.8088 54.7698 28.1816C54.2978 28.5528 53.9134 29.0821 53.61 29.7626C53.3066 30.4431 53.1582 31.371 53.1582 32.5602C53.1582 33.66 53.3875 34.5536 53.8325 35.2547C54.2714 35.9467 54.8683 36.5199 55.5722 36.925C56.2802 37.3443 57.0893 37.6262 57.9861 37.7843C58.859 37.9387 59.7433 38.0169 60.6293 38.018C61.5419 38.0153 62.4513 37.907 63.3399 37.6949C64.204 37.4933 65.023 37.1271 65.7538 36.6157C66.4707 36.1086 67.0561 35.4316 67.4598 34.643C67.8913 33.8387 68.1071 32.8352 68.1071 31.6597L68.1003 28.5459Z"
        fill="currentColor" />
    <path
        d="M43.1587 38.8497C43.1587 39.1591 43.0036 39.3103 42.7069 39.3103H41.9989C41.6955 39.3103 41.5471 39.1591 41.5471 38.8497V2.46005C41.5471 2.15073 41.6955 1.99951 41.9989 1.99951H42.7069C43.0103 1.99951 43.1587 2.15761 43.1587 2.46005V38.8497Z"
        fill="currentColor" />
    <path
        d="M17.9946 41.3104C18.1562 41.3102 18.3163 41.2775 18.4655 41.2141C18.6148 41.1507 18.7503 41.0579 18.8643 40.9411C18.9783 40.8242 19.0685 40.6856 19.1299 40.5331C19.1912 40.3806 19.2225 40.2173 19.2218 40.0525V38.121C19.2202 38.0745 19.2135 38.0284 19.2015 37.9835C19.2015 37.956 19.1948 37.9354 19.1948 37.9079L19.1746 37.7704H19.4443C19.6374 37.7705 19.8286 37.7318 20.0069 37.6566C20.1853 37.5813 20.3474 37.4709 20.484 37.3318C20.6205 37.1926 20.7287 37.0274 20.8026 36.8455C20.8764 36.6637 20.9143 36.4687 20.9142 36.2719V34.1686C20.9118 33.9262 20.8523 33.688 20.7408 33.4739C20.6294 33.2598 20.4692 33.0761 20.2737 32.9382L20.2197 32.8969L20.2265 32.8213C20.5501 29.9618 21.865 27.3979 23.9418 25.597C25.5202 24.2355 26.788 22.5393 27.6568 20.6266C28.5256 18.714 28.9744 16.6311 28.9719 14.5233C29.0124 10.6534 27.5222 7.00345 24.7981 4.2402C23.4793 2.89063 21.9112 1.82095 20.1844 1.09298C18.4576 0.36502 16.6064 -0.006776 14.7378 -0.000908175H14.6906C10.993 0.0147179 7.44693 1.49914 4.80561 4.1371C2.12871 6.79037 0.591341 10.3304 0.483456 14.0834C0.417673 16.2402 0.823411 18.3848 1.67126 20.3619C2.51912 22.339 3.78784 24.0991 5.38549 25.5145C7.57017 27.4391 8.93222 30.0443 9.23565 32.835L9.24239 32.9107L9.18845 32.9519C8.99271 33.0901 8.83196 33.2737 8.71942 33.4876C8.60689 33.7015 8.54578 33.9396 8.54114 34.1823V36.2788C8.54102 36.4756 8.57896 36.6705 8.65279 36.8524C8.72662 37.0342 8.83489 37.1995 8.97141 37.3386C9.10793 37.4778 9.27002 37.5882 9.44842 37.6635C9.62681 37.7387 9.81801 37.7774 10.0111 37.7773H10.301L10.274 37.9216C10.2566 37.9841 10.2498 38.0492 10.2538 38.1141V40.0456C10.2536 40.3781 10.3826 40.6972 10.6126 40.9329C10.8426 41.1687 11.1549 41.3019 11.481 41.3035M18.325 40.0731C18.3218 40.1638 18.2841 40.2496 18.2199 40.3125C18.1557 40.3754 18.0701 40.4103 17.9811 40.4099H11.4473C11.359 40.4079 11.2747 40.3722 11.211 40.3098C11.1473 40.2475 11.1089 40.163 11.1034 40.0731V38.1416C11.1061 38.0495 11.1432 37.9619 11.2071 37.8967C11.271 37.8315 11.3569 37.7937 11.4473 37.791H17.9811C18.0265 37.7901 18.0717 37.7985 18.1138 37.8157C18.156 37.833 18.1943 37.8588 18.2264 37.8915C18.2585 37.9243 18.2838 37.9633 18.3007 38.0063C18.3177 38.0493 18.3259 38.0953 18.325 38.1416V40.0731ZM20.0309 36.2994C20.0289 36.4519 19.9686 36.5976 19.8628 36.7054C19.757 36.8132 19.6141 36.8747 19.4645 36.8768H10.0043C9.85475 36.8747 9.71186 36.8132 9.60608 36.7054C9.5003 36.5976 9.43997 36.4519 9.43793 36.2994V34.1961C9.43997 34.0436 9.5003 33.8979 9.60608 33.7901C9.71186 33.6822 9.85475 33.6207 10.0043 33.6187H19.4645C19.6141 33.6207 19.757 33.6822 19.8628 33.7901C19.9686 33.8979 20.0289 34.0436 20.0309 34.1961V36.2994ZM23.3821 24.9234C21.1705 26.8274 19.7477 29.5563 19.3769 32.6013L19.3566 32.6976H10.1122L10.092 32.6013C9.72113 29.6319 8.25794 26.8686 5.95863 24.834C3.91532 23.0148 2.46345 20.6048 1.79596 17.9243C1.12848 15.2437 1.27699 12.4196 2.22176 9.82719C3.16653 7.23476 4.86282 4.9968 7.0852 3.41074C9.30758 1.82467 11.9508 0.965589 14.6636 0.947671H14.7108C17.4446 0.943373 20.1138 1.79474 22.3577 3.38671C24.6015 4.97868 26.3119 7.23451 27.2576 9.84934C28.2033 12.4642 28.3388 15.3119 27.6457 18.0078C26.9526 20.7036 25.4643 23.1175 23.3821 24.9234Z"
        fill="currentColor" />
    <path
        d="M23.6516 14.2344C23.4735 13.9339 23.2135 13.6927 22.9032 13.5402L22.8358 13.5127L22.6065 13.4165L22.6739 13.1759C22.7681 12.833 22.8224 12.48 22.8358 12.1242C22.861 11.4257 22.7675 10.728 22.5593 10.0621C22.4042 9.58091 22.121 8.9004 21.6288 8.42611C21.382 8.17297 21.0637 8.00475 20.7185 7.94495L20.5297 7.91746L20.4893 7.72499C20.3068 6.98404 19.8778 6.33055 19.2755 5.87595C18.5271 5.27793 17.5292 4.94799 16.5312 4.94799C16.0417 4.94038 15.5665 5.11652 15.1961 5.4429C15.1063 5.52552 15.0229 5.61515 14.9467 5.71098L14.7174 5.99968L14.4881 5.71098C14.4138 5.61352 14.3302 5.52373 14.2387 5.4429C13.8813 5.11296 13.4228 4.94799 12.9036 4.94799C11.9143 4.94584 10.9511 5.27152 10.1592 5.87595C9.53216 6.37086 9.11411 7.01699 8.94554 7.72499L8.90508 7.91058L8.71628 7.95182C8.37346 8.01872 8.05717 8.18591 7.806 8.43299C7.31377 8.90728 7.03057 9.58091 6.87549 10.0689C6.66639 10.7347 6.57284 11.4325 6.59903 12.1311C6.61559 12.4866 6.66985 12.8392 6.76086 13.1828L6.82829 13.4371L6.59903 13.5333C6.26386 13.6758 5.98418 13.9271 5.80338 14.2482C5.45275 14.8256 5.28418 15.7054 5.28418 16.9977C5.28418 18.4824 5.89778 19.3348 6.41023 19.7816C6.73628 20.0714 7.12063 20.2849 7.53628 20.4071L7.70485 20.4552L7.74531 20.627C7.90111 21.3589 8.22201 22.0438 8.68256 22.6273C9.13433 23.2047 10.1323 24.167 11.7236 24.167C12.8496 24.167 13.6992 23.514 14.2117 22.9572C14.3061 22.861 14.4005 22.7373 14.4949 22.6273L14.7241 22.3386L14.9534 22.6273C15.0408 22.7433 15.1354 22.8536 15.2366 22.9572C15.7558 23.5071 16.6054 24.167 17.7247 24.167C19.316 24.167 20.3139 23.1978 20.7657 22.6273C21.2216 22.0417 21.5399 21.3575 21.6962 20.627L21.7367 20.4552L21.9053 20.4071C22.3217 20.2819 22.7077 20.0688 23.038 19.7816C23.5505 19.3348 24.1641 18.4756 24.1641 16.9977C24.1708 15.6848 24.0023 14.8187 23.6516 14.2344ZM14.2926 10.3301V10.6188H12.9508L12.8766 10.4333C12.7945 10.2237 12.6715 10.0334 12.515 9.8739C12.3585 9.71437 12.1718 9.58896 11.9663 9.50529C11.7683 9.42731 11.5583 9.38543 11.346 9.38157C10.9937 9.37952 10.65 9.49209 10.3648 9.70291C10.0797 9.91372 9.86792 10.2118 9.76037 10.5537C9.65281 10.8957 9.65508 11.2637 9.76684 11.6042C9.87859 11.9448 10.094 12.2401 10.3818 12.4473C10.5862 12.5943 10.8205 12.6923 11.0673 12.7339C11.3141 12.7755 11.567 12.7597 11.8069 12.6877C12.0469 12.6156 12.2677 12.4891 12.453 12.3178C12.6382 12.1464 12.783 11.9345 12.8766 11.698L12.9508 11.5124H14.2926V21.2457L14.2724 21.3007L14.2656 21.3213C14.2302 21.4153 14.185 21.5052 14.1308 21.5894C13.9803 21.8555 13.7992 22.1024 13.5913 22.3249C13.0249 22.9366 12.3776 23.2528 11.7371 23.2528C10.8133 23.2528 10.0042 22.8335 9.38382 22.043C8.83091 21.335 8.58817 20.5239 8.58817 20.029C8.58942 19.97 8.57893 19.9113 8.55735 19.8565C8.53577 19.8018 8.50353 19.752 8.46258 19.7103C8.42163 19.6685 8.37281 19.6356 8.31907 19.6136C8.26533 19.5916 8.20778 19.581 8.14988 19.5822C7.98805 19.5822 7.48908 19.4929 7.01709 19.0804C6.47766 18.5993 6.19446 17.8982 6.19446 16.9771C6.19446 16.2278 6.2484 15.6298 6.36303 15.2036C6.39993 15.0662 6.47983 14.9449 6.59059 14.858C6.70135 14.7712 6.8369 14.7236 6.97663 14.7225H9.28942C9.67343 14.724 10.0442 14.8655 10.3349 15.1214C10.6255 15.3773 10.8167 15.7308 10.874 16.1179L10.9144 16.3516L10.7054 16.4409C10.3709 16.5819 10.0909 16.8308 9.90819 17.1493C9.72551 17.4679 9.6502 17.8387 9.69378 18.2051C9.73736 18.5714 9.89744 18.9131 10.1495 19.178C10.4016 19.4428 10.7319 19.6162 11.0898 19.6716C11.1763 19.689 11.2646 19.6959 11.3527 19.6922C11.6163 19.6919 11.8759 19.6268 12.1095 19.5024C12.3432 19.3779 12.5438 19.1978 12.6945 18.9773C12.8394 18.7671 12.9353 18.526 12.9751 18.2723C13.0148 18.0186 12.9973 17.759 12.9238 17.5132C12.8529 17.2698 12.7278 17.0463 12.5582 16.8603C12.3886 16.6743 12.1791 16.5308 11.9461 16.4409L11.7775 16.3722L11.7573 16.1866C11.7084 15.5501 11.4271 14.9554 10.9689 14.5201C10.5107 14.0848 9.90897 13.8406 9.28268 13.8358H8.43982C8.33498 13.8339 8.23206 13.8068 8.13948 13.7566C8.04689 13.7064 7.96728 13.6346 7.90714 13.5471C7.67114 13.1828 7.52954 12.6741 7.50931 12.0761C7.48645 11.4872 7.56402 10.8988 7.73857 10.337C7.90714 9.79399 8.15662 9.34032 8.43982 9.07912C8.62188 8.90728 8.79719 8.81104 8.99274 8.81104C9.06616 8.81477 9.13875 8.82864 9.20851 8.85229C9.25143 8.86916 9.29747 8.8762 9.34336 8.87291C9.40126 8.87418 9.45881 8.8635 9.51256 8.8415C9.5663 8.81949 9.61511 8.78663 9.65606 8.74489C9.69701 8.70314 9.72925 8.65338 9.75083 8.59859C9.77242 8.54381 9.7829 8.48514 9.78165 8.42611C9.78165 7.71124 10.112 7.05824 10.7324 6.5702C11.366 6.08485 12.138 5.82413 12.9305 5.82783C13.2044 5.81705 13.472 5.9129 13.679 6.09591C13.8673 6.27801 14.0086 6.50467 14.0903 6.75579C14.1996 7.07002 14.2632 7.39886 14.2791 7.73186L14.2926 10.3301ZM11.8787 11.6155C11.8057 11.6934 11.7177 11.755 11.6202 11.7964C11.5227 11.8378 11.4179 11.8582 11.3123 11.8561H11.2718C11.0808 11.8441 10.9006 11.7613 10.7653 11.6233C10.6299 11.4853 10.5487 11.3016 10.5368 11.1069C10.5301 10.999 10.5452 10.8909 10.5812 10.7892C10.6172 10.6875 10.6732 10.5944 10.7459 10.5157C10.8188 10.4379 10.9068 10.3763 11.0043 10.3349C11.1018 10.2934 11.2067 10.2731 11.3123 10.2752H11.3527C11.5438 10.2872 11.7239 10.37 11.8593 10.508C11.9946 10.646 12.0759 10.8296 12.0877 11.0244C12.0965 11.1325 12.0825 11.2412 12.0464 11.3432C12.0103 11.4452 11.9531 11.5381 11.8787 11.6155ZM11.2853 17.2245H11.3258C11.5381 17.2262 11.7414 17.3126 11.8922 17.4651C11.9653 17.5435 12.0216 17.6365 12.0576 17.7383C12.0936 17.84 12.1084 17.9483 12.1012 18.0563C12.0894 18.251 12.0081 18.4347 11.8728 18.5726C11.7374 18.7106 11.5573 18.7934 11.3662 18.8055H11.3258C11.1134 18.8038 10.9101 18.7174 10.7594 18.5649C10.6862 18.4865 10.6299 18.3935 10.5939 18.2917C10.5579 18.19 10.5431 18.0817 10.5503 17.9738C10.5622 17.779 10.6434 17.5954 10.7787 17.4574C10.9141 17.3194 11.0942 17.2366 11.2853 17.2245ZM22.4716 19.0873C21.9997 19.4929 21.4939 19.5891 21.3389 19.5891C21.281 19.5878 21.2234 19.5985 21.1697 19.6205C21.1159 19.6425 21.0671 19.6754 21.0262 19.7171C20.9852 19.7589 20.953 19.8086 20.9314 19.8634C20.9098 19.9182 20.8993 19.9769 20.9006 20.0359C20.9006 20.5308 20.6511 21.3419 20.1049 22.0499C19.4846 22.8404 18.6687 23.2597 17.7517 23.2597C16.9425 23.2597 16.2952 22.7579 15.8974 22.3317C15.6916 22.1042 15.5065 21.858 15.3445 21.5962C15.2903 21.512 15.2451 21.4221 15.2096 21.3282L15.2029 21.3075L15.1827 21.2594V19.2179H16.0862C16.742 19.2163 17.3705 18.95 17.8343 18.4773C18.298 18.0045 18.5592 17.3638 18.5608 16.6952V14.7156L18.7429 14.64C18.9608 14.5499 19.1574 14.4134 19.3195 14.2397C19.4815 14.0659 19.6053 13.8589 19.6825 13.6324C19.7598 13.406 19.7887 13.1653 19.7673 12.9265C19.746 12.6878 19.6749 12.4564 19.5587 12.2479C19.4341 12.0253 19.2622 11.8339 19.0557 11.6877C18.8493 11.5414 18.6134 11.444 18.3653 11.4025C18.2786 11.3856 18.1904 11.3787 18.1023 11.3818C17.8397 11.3822 17.581 11.4474 17.3485 11.5719C17.116 11.6964 16.9165 11.8765 16.7672 12.0967C16.6227 12.3071 16.5264 12.5479 16.4855 12.8013C16.4447 13.0548 16.4603 13.3144 16.5312 13.5608C16.6002 13.8039 16.7231 14.0276 16.8902 14.2147C17.0574 14.4018 17.2644 14.5473 17.4954 14.64L17.6775 14.7156V16.6884C17.6765 17.1219 17.5071 17.5374 17.2063 17.844C16.9056 18.1506 16.498 18.3233 16.0727 18.3243H15.1692V7.78685C15.1783 7.43069 15.242 7.07816 15.358 6.74204C15.4379 6.4933 15.5742 6.26724 15.7558 6.08216L15.7625 6.07529L15.7693 6.06841C15.9765 5.89044 16.2401 5.79518 16.511 5.80034C17.3066 5.80034 18.1158 6.06841 18.7092 6.54958C19.3295 7.04449 19.6599 7.69062 19.6599 8.40549C19.6603 8.47583 19.6769 8.54508 19.7084 8.60768C19.7399 8.67027 19.7853 8.72448 19.841 8.76593C19.8968 8.80737 19.9613 8.83492 20.0294 8.84633C20.0974 8.85775 20.1672 8.85273 20.233 8.83167C20.3028 8.80802 20.3754 8.79415 20.4488 8.79042C20.6376 8.79042 20.8197 8.87978 21.0017 9.0585C21.2849 9.32658 21.5277 9.77337 21.703 10.3095C21.8729 10.8724 21.9504 11.46 21.9322 12.0486C21.9053 12.6466 21.7637 13.1621 21.5344 13.5196C21.4866 13.5955 21.4609 13.6837 21.4602 13.7739C21.4587 13.8334 21.47 13.8926 21.4933 13.9472C21.5166 14.0019 21.5513 14.0506 21.5951 14.0901C21.6348 14.1335 21.6828 14.1681 21.7361 14.1917C21.7895 14.2154 21.8471 14.2276 21.9053 14.2276C22.1113 14.221 22.3162 14.2609 22.5054 14.3444C22.6627 14.4236 22.7939 14.5478 22.883 14.7019C23.1324 15.128 23.2606 15.8704 23.2606 16.9771C23.2875 17.8982 23.0043 18.613 22.4716 19.0873ZM17.5696 13.5952C17.4965 13.5168 17.4401 13.4238 17.4041 13.322C17.3681 13.2202 17.3533 13.112 17.3606 13.004C17.3724 12.8093 17.4536 12.6256 17.589 12.4876C17.7244 12.3497 17.9045 12.2669 18.0956 12.2548H18.136C18.3484 12.2565 18.5517 12.3429 18.7024 12.4954C18.7755 12.5738 18.8319 12.6668 18.8679 12.7685C18.9039 12.8703 18.9187 12.9786 18.9114 13.0865C18.8996 13.2813 18.8184 13.4649 18.683 13.6029C18.5477 13.7409 18.3675 13.8237 18.1765 13.8358H18.136C18.0301 13.8403 17.9245 13.8211 17.8266 13.7795C17.7288 13.738 17.641 13.675 17.5696 13.5952Z"
        fill="currentColor" />
</svg>    