<svg width="64" height="64" viewBox="0 0 64 64" fill="none" xmlns="http://www.w3.org/2000/svg">
<path d="M16.0316 54.3416C10.2394 42.4731 6.79327 35.3055 6.79327 35.1275C6.79327 34.8373 7.14722 34.8776 10.6273 35.56C16.7479 36.7617 20.0181 37.1008 25.4692 37.1028C32.6813 37.1048 38.5543 35.9625 43.1173 33.6673C45.5313 32.4529 46.983 31.3763 48.1719 29.9181C49.6364 28.1208 50.1069 26.8831 50.1238 24.7998C50.1386 22.8183 49.8715 21.7733 48.725 19.3487C48.2714 18.3907 47.8729 17.2909 47.8349 16.905C47.7755 16.284 47.8263 16.1949 48.2842 16.1421C49.2845 16.0235 54.2226 20.8173 56.041 23.6721C59.1755 28.5954 59.43 33.9213 56.7765 39.0716C55.1467 42.2357 53.3453 44.4249 50.3294 46.9133C45.3171 51.046 39.491 53.924 31.4459 56.2426C27.1245 57.4889 20.1369 59 18.6979 59C18.3928 59 17.8203 57.9996 16.0359 54.3396L16.0316 54.3416ZM17.6446 35.2015C12.0176 34.4725 7.29573 33.8387 7.14949 33.7921C6.89952 33.7116 6.00515 30.7276 5.50067 28.2988C5.37356 27.6841 5.18702 26.0564 5.08532 24.679C4.63153 18.5327 5.96892 14.2833 9.55272 10.4622C15.6205 3.99815 28.6122 3.21175 43.2698 8.42118C45.8426 9.33671 46.8642 9.97255 46.3917 10.3688C46.042 10.6612 43.6725 10.657 39.578 10.356C33.1774 9.8855 28.3051 10.7756 25.7936 12.878C21.9702 16.0782 22.5532 23.0934 27.485 33.2132C28.0191 34.309 28.5573 35.3813 28.6804 35.5996C28.9666 36.1018 28.7589 36.5682 28.2607 36.5448C28.0485 36.5347 23.2714 35.9307 17.6446 35.2015ZM36.5216 29.6956C32.0306 28.8881 27.9932 26.1032 26.6898 22.9179C26.0645 21.3877 26.0942 19.3913 26.7618 18.1961C27.3659 17.1152 28.9256 15.8648 30.3224 15.3413C32.6473 14.4703 36.7186 14.8177 39.6857 16.1425C42.5023 17.3993 44.9991 19.6098 45.9272 21.6656C47.1184 24.3041 46.1264 27.248 43.5746 28.6531C41.8833 29.5835 38.5963 30.0688 36.5193 29.6958H36.5216L36.5216 29.6956Z" fill="currentColor"/>
</svg>
