<svg width="49" height="100" viewBox="0 0 49 100" fill="none" xmlns="http://www.w3.org/2000/svg">
    <path
        d="M11.5745 81.1758L10.7125 81.3328L10.4675 81.3748L10.4995 81.9068C11.2695 83.2928 11.9545 83.1828 12.5935 81.6208L12.6235 80.9658L12.4515 81.0018L11.5745 81.1758Z"
        fill="currentColor" />
    <path d="M10.1215 75.6063L10.2655 75.5883L10.2115 74.3643L10.0505 74.4073L10.1215 75.6063Z"
        fill="currentColor" />
    <path
        d="M10.7957 74.2142L10.7327 74.2312L10.7757 75.5232L11.3767 75.4452L11.4437 75.4362L11.4147 74.0552L11.3197 74.0802L10.7957 74.2142Z"
        fill="currentColor" />
    <path
        d="M12.8025 75.2458L12.8875 75.2348L12.9635 73.5928L12.8625 73.6288L12.8555 73.6318L12.8025 75.2458Z"
        fill="currentColor" />
    <path
        d="M12.1896 75.3331H12.1926L12.2216 73.8311L11.9456 73.9111L11.9596 75.3651L12.1896 75.3331Z"
        fill="currentColor" />
    <path
        d="M19.7256 14.703H29.1136C33.8036 10.856 26.5306 7.5 26.5436 0.648999C26.3856 0.771999 26.3356 3.34 26.1696 4.835H26.1686C26.1106 6.217 25.9646 7.569 25.5006 8.849C25.3556 9.322 24.9136 10.24 24.4586 10.774C23.9946 11.344 23.4206 11.775 22.7136 12.036C22.1936 12.191 21.7176 12.232 21.3066 12.114C21.1046 12.057 20.9196 11.948 20.7946 11.778C20.5986 11.513 20.5276 11.157 20.6086 10.675C20.7026 10.252 21.0816 10.047 21.4916 10.21C21.8016 10.326 22.1176 10.418 22.4416 10.481C23.1316 10.62 23.7486 10.492 24.2906 10.092C24.2906 10.092 24.7286 9.769 25.1286 8.956C25.3396 8.542 25.5046 8.103 25.6116 7.65C25.8316 6.719 25.9486 5.749 26.0526 4.783C24.6756 3.797 24.8806 0.938 24.2196 0C24.6206 7.095 13.3286 9.033 19.7256 14.703Z"
        fill="currentColor" />
    <path
        d="M33.1406 14.703H42.5286C47.2186 10.856 39.9446 7.5 39.9586 0.648999C39.8006 0.771999 39.7496 3.34 39.5826 4.835C39.5226 6.217 39.3776 7.569 38.9146 8.849C38.7696 9.322 38.3266 10.24 37.8716 10.774C37.4076 11.344 36.8336 11.775 36.1256 12.036C35.6076 12.191 35.1306 12.232 34.7196 12.114C34.5186 12.057 34.3326 11.948 34.2086 11.778C34.0116 11.513 33.9416 11.157 34.0206 10.675C34.1176 10.252 34.4956 10.047 34.9056 10.21C35.2146 10.326 35.5316 10.418 35.8546 10.481C36.5456 10.62 37.1626 10.492 37.7046 10.092C37.7046 10.092 38.1426 9.769 38.5416 8.956C38.7526 8.542 38.9186 8.103 39.0236 7.65C39.2446 6.719 39.3626 5.749 39.4666 4.783C38.0876 3.797 38.2946 0.938 37.6326 0C38.0346 7.095 26.7416 9.033 33.1406 14.703Z"
        fill="currentColor" />
    <path
        d="M42.9605 20.2293L43.2225 19.4053H32.2095L32.3445 20.2973L33.0365 20.8033H42.1805V20.8383L42.9605 20.2293Z"
        fill="currentColor" />
    <path
        d="M43.7856 18.656L43.7916 17.314L43.7496 17.27H31.6466L31.5406 17.36L31.5366 18.634L31.8036 18.931H43.5706L43.7856 18.656Z"
        fill="currentColor" />
    <path d="M32.2835 15.2109L32.0935 16.7969H43.3425L43.0905 15.2109H32.2835Z" fill="currentColor" />
    <path
        d="M30.4866 18.656L30.4916 17.314L30.4496 17.27H18.3476L18.2396 17.36L18.2366 18.634L18.5036 18.931H30.2706L30.4866 18.656Z"
        fill="currentColor" />
    <path d="M18.9837 15.2109L18.7937 16.7969H30.0427L29.7917 15.2109H18.9837Z" fill="currentColor" />
    <path
        d="M29.6617 20.2293L29.9237 19.4053H18.9097L19.0447 20.2973L19.7367 20.8033H28.8807V20.8383L29.6617 20.2293Z"
        fill="currentColor" />
    <path
        d="M16.3057 20.2293L16.5677 19.4053H5.55469L5.68969 20.2973L6.38169 20.8033H15.5257V20.8383L16.3057 20.2293Z"
        fill="currentColor" />
    <path
        d="M17.1316 18.656L17.1366 17.314L17.0946 17.27H4.99159L4.88559 17.36L4.88159 18.634L5.14859 18.931H16.9156L17.1316 18.656Z"
        fill="currentColor" />
    <path d="M5.6275 15.2109L5.4375 16.7969H16.6875L16.4355 15.2109H5.6275Z" fill="currentColor" />
    <path
        d="M40.0835 65.0089V68.8799L40.4085 68.9799L40.8655 69.1249L41.3315 69.2749L41.8025 69.4339L42.2765 69.5999L42.7485 69.7769L43.2205 69.9619L43.6875 70.1579L43.9545 70.2789C43.4815 69.5749 43.1255 68.9369 43.0035 68.1449C44.2025 67.2569 45.6135 66.6269 47.2775 66.2109C44.3865 64.5649 42.2555 64.8509 40.0835 65.0089Z"
        fill="currentColor" />
    <path
        d="M29.9296 35.4019C29.8356 35.4019 29.7566 35.4799 29.7566 35.5779C29.7566 35.6749 29.8346 35.7529 29.9296 35.7529C30.0236 35.7529 30.1026 35.6749 30.1026 35.5779C30.1026 35.4799 30.0246 35.4019 29.9296 35.4019Z"
        fill="currentColor" />
    <path
        d="M10.6486 35.6352C10.7426 35.6352 10.8216 35.5562 10.8216 35.4592C10.8216 35.3622 10.7436 35.2842 10.6486 35.2842C10.5536 35.2842 10.4756 35.3622 10.4756 35.4592C10.4756 35.5562 10.5536 35.6352 10.6486 35.6352Z"
        fill="currentColor" />
    <path
        d="M20.6505 31.4853C20.7445 31.4853 20.8235 31.4083 20.8235 31.3103C20.8235 31.2123 20.7455 31.1353 20.6505 31.1353C20.5555 31.1353 20.4775 31.2123 20.4775 31.3103C20.4775 31.4083 20.5565 31.4853 20.6505 31.4853Z"
        fill="currentColor" />
    <path
        d="M1.44564 75.2769L1.88164 75.4468L2.33964 75.5909L2.82764 75.7099L3.33864 75.8019L3.87964 75.8719L4.44164 75.9189L5.03064 75.9439L5.64564 75.9519L6.09564 75.9419C7.78864 74.3039 10.9086 74.1218 13.2506 73.1959C13.8336 71.9258 13.9796 70.8409 14.0376 69.8889L14.5586 70.2559L15.5086 70.8749L16.4966 71.4689L17.5236 72.0399L18.5876 72.5829L19.6886 73.0979L20.8296 73.5809L22.0066 74.0309L22.0556 74.0479L22.3656 74.0169L23.3926 73.9259L23.4616 73.9219C10.8836 69.8979 4.15264 60.0249 4.45964 54.0929L4.45164 39.6349L4.65964 39.8089L4.96964 40.0199L5.31164 40.2189L5.68264 40.4099L6.07764 40.5869L6.49364 40.7519L6.92064 40.9039L7.35664 41.0389L7.79264 41.1549L8.22564 41.2519L8.64764 41.3259L9.05664 41.3729L9.46164 41.3909L9.85064 41.3549L10.2326 41.2629L10.5966 41.1309L10.9466 40.9679L11.2846 40.7819L11.6146 40.5789L11.9366 40.3709L12.2506 40.1599L12.5596 39.9529L12.8586 39.7589L13.1536 39.5809L13.4366 39.4249L13.7106 39.3009L13.9686 39.2089L14.2136 39.1509L14.4396 39.1329L14.6686 39.1499L14.9106 39.2069L15.1706 39.2959L15.4436 39.4179L15.7286 39.5699L16.0216 39.7449L16.3246 39.9359L16.6326 40.1369L16.9476 40.3449L17.2696 40.5499L17.5986 40.7459L17.9386 40.9249L18.2896 41.0839L18.6546 41.2079L19.0356 41.2939L19.4276 41.3249L19.8226 41.2939L20.2076 41.2069L20.5746 41.0769L20.9266 40.9139L21.2656 40.7269L21.5956 40.5239L21.9186 40.3119L22.2326 40.0999L22.5416 39.8909L22.8416 39.6939L23.1356 39.5139L23.4186 39.3569L23.6916 39.2299L23.9496 39.1389L24.1906 39.0839L24.4176 39.0659L24.6476 39.0849L24.8916 39.1399L25.1496 39.2299L25.4226 39.3529L25.7076 39.5039L26.0006 39.6789L26.3026 39.8729L26.6116 40.0759L26.9266 40.2839L27.2486 40.4879L27.5806 40.6849L27.9196 40.8649L28.2716 41.0209L28.6366 41.1479L29.0196 41.2319L29.4116 41.2589L29.8036 41.2289L30.1876 41.1429L30.5536 41.0129L30.9056 40.8499L31.2466 40.6639L31.5766 40.4629L31.8976 40.2519L32.2126 40.0369L32.5216 39.8299L32.8246 39.6309L33.1186 39.4519L33.4016 39.2949L33.6756 39.1679L33.9336 39.0739L34.1746 39.0159L34.4006 38.9979L34.6276 39.0149L34.8726 39.0719L35.1336 39.1609L35.4046 39.2829L35.6896 39.4349L35.9826 39.6099L36.2846 39.8009L36.5926 40.0029L36.9076 40.2099L37.2306 40.4149L37.5606 40.6109L37.8996 40.7899L38.2496 40.9489L38.6146 41.0759L38.9956 41.1599L39.3826 41.1909L39.7706 41.1699L40.1716 41.1129L40.5896 41.0289L41.0166 40.9199L41.4516 40.7879L41.8876 40.6369L42.3146 40.4709L42.7316 40.2919L43.1296 40.1029L43.5036 39.9039L43.8466 39.7019L44.1556 39.4939L44.3766 39.3169V53.8259C44.2966 62.2089 35.2056 70.3878 25.7716 73.8829L25.9906 73.8939L26.8016 73.9429L27.0786 73.9639L27.5916 73.7519L28.5166 73.3419L29.4336 72.9009L30.3426 72.4359L31.2396 71.9449L32.1236 71.4279L32.9946 70.8869L33.8486 70.3249L34.6856 69.7399L34.9876 69.5159C35.0076 70.8729 35.5396 72.7049 36.1016 73.2169C38.8676 73.6929 40.8256 74.4188 42.9356 75.4839L43.0676 75.4849L43.7466 75.4679L44.3866 75.4289L44.9806 75.3649L45.5256 75.2769L46.0196 75.1639L46.4586 75.0219L46.8356 74.8549L47.1536 74.6609L47.4046 74.4429L47.7246 74.0328C46.4786 70.2289 39.0386 69.1679 36.8356 68.0569L37.0716 67.8599L37.2176 67.7289L37.2256 67.9369L37.3736 67.9999L37.6646 68.1109L37.9876 68.2249L38.0146 68.2339L37.9896 67.0339L38.5396 66.5109L38.5856 66.4639L38.6026 68.4229L38.7136 68.4579L39.1116 68.5809L39.1246 68.5849L39.1596 65.8819L39.2306 65.8109L39.6716 65.3339L39.5526 68.7159L39.8366 68.8029L40.0136 64.9559L40.5226 64.3629L41.1196 63.6179L41.6796 62.8569L42.2026 62.0839L42.6856 61.2999L43.1266 60.5049L43.5246 59.6979L43.8776 58.8809L44.1846 58.0549L44.4406 57.2219L44.6446 56.3819L44.7966 55.5349L44.8916 54.6839L44.9296 53.8359V26.5659H41.7736L42.0236 21.1519H33.4986L33.8246 26.5659H28.4756L28.7226 21.1519H20.2006L20.5256 26.5659H15.1196L15.3676 21.1519H6.84364L7.16864 26.5659H3.89464L3.89564 27.3769L3.90564 54.0899L3.89964 54.6909L3.93764 55.3359L4.02164 55.9989L4.14864 56.6779L4.32064 57.3719L4.53664 58.0789L4.79664 58.7949L5.09664 59.5209L5.44064 60.2539L5.82564 60.9929L6.25364 61.7359L6.72164 62.4799L7.23364 63.2259L7.78564 63.9689L8.37664 64.7079L8.86464 65.2729C6.10964 64.6869 3.67764 65.1069 2.14864 65.6729C3.95764 66.1999 5.44364 66.9879 6.81864 68.1439C6.63164 68.7599 6.29164 69.2489 5.75464 69.9059L6.26964 69.7159L6.81264 69.5289L7.35464 69.3539L7.89164 69.1919L8.42064 69.0429L8.93564 68.9069L9.43564 68.7809L9.47464 68.7719L9.23564 65.6829L9.54564 66.0159L9.70864 68.7179L9.91564 68.6699L9.95564 68.6599L9.85164 66.3329L10.3976 66.8829L10.4896 66.9689L10.5436 68.5349L10.8036 68.4799L11.2046 68.4049L11.3016 68.3869L11.2866 67.7069L11.8976 68.2389L11.9006 68.5659C8.99264 69.0119 0.847643 70.9749 0.483643 74.7489L1.04164 75.0809L1.44564 75.2769ZM39.8746 22.9169C40.2266 21.5579 41.0506 21.6609 41.1806 22.9319L41.0506 26.5649H39.8046L39.8746 22.9169ZM38.1846 23.1509L38.2156 26.5649H37.1536L37.0866 23.3639C37.3326 21.9599 38.0286 21.9189 38.1846 23.1509ZM35.7236 23.0189L35.8406 26.5649H34.7766L34.6316 23.3579C34.8426 21.9099 35.5376 21.7909 35.7236 23.0189ZM34.9576 33.3929C34.5866 33.5979 34.2526 33.8979 34.2306 34.2909C35.7846 34.3879 37.7206 34.9139 38.8206 35.3479C39.4926 34.6559 39.5606 34.1249 41.3516 34.1179C40.8776 34.5449 40.2446 34.9519 40.0736 35.5649C40.5456 36.1509 40.8206 36.9019 41.4886 37.3259C40.0486 37.4059 39.6556 36.4429 38.7386 36.0029C37.8846 36.2169 37.8906 36.5009 35.9336 36.7969C36.2016 37.0379 36.5046 37.2799 36.8436 37.4859C36.6996 37.4839 36.5696 37.4919 36.4456 37.5049C35.9626 37.4449 35.5026 37.1799 35.0486 36.8419C35.2496 37.2039 35.5136 37.4469 35.8386 37.5469C35.4946 37.5369 35.0626 37.4489 34.3816 37.1289C32.7416 37.5669 30.9036 37.5259 28.4926 36.2279C28.8496 36.1329 29.3766 36.2429 29.9666 36.4329C29.5406 36.0569 29.0366 35.9019 28.4336 36.0319C28.9696 35.4709 30.0016 34.7519 31.3236 34.3689C32.1606 33.9549 32.5476 33.0489 34.9576 33.3929ZM26.6016 22.3129C26.9536 21.6339 27.7776 21.6859 27.9066 22.3209L27.6326 26.5659H26.4396L26.6016 22.3129ZM24.9116 22.5799L24.9886 26.5649H23.9806L23.8126 22.6819C24.0596 22.0159 24.7566 21.9959 24.9116 22.5799ZM22.4496 22.4119L22.7636 26.5659H21.7626L21.3596 22.5629C21.5696 21.9209 22.2646 21.8669 22.4496 22.4119ZM22.1396 30.1479C22.9776 29.7359 23.1986 28.8979 25.6086 29.2179C25.2376 29.4259 24.9726 29.6299 24.9526 30.0219C26.5056 30.2389 28.5596 30.6939 29.7296 31.0349C30.4026 30.3409 30.6116 29.7619 32.3066 29.4739C31.8356 29.9029 31.1756 30.6619 31.0066 31.2759C31.4796 31.8619 32.5546 31.9989 33.2456 32.2569C31.7596 32.8829 30.8236 32.2239 29.8836 31.6409C29.0296 31.8559 28.6136 32.2349 26.6536 32.5309C26.9216 32.7729 27.2256 33.0149 27.5636 33.2209C27.3496 33.2179 27.1696 33.2399 26.9896 33.2599C26.6126 33.2039 26.2256 32.9529 25.8396 32.6599C26.0336 32.9799 26.2236 33.2179 26.4066 33.2739C26.0866 33.2439 25.6876 33.1409 25.1006 32.8649C23.4566 33.3029 21.6106 33.2599 19.1876 31.9479C19.6176 31.8549 20.1536 31.9829 20.7096 32.1569C20.3546 31.7919 19.8666 31.6229 19.1846 31.7389C19.7396 31.1849 20.8386 30.5239 22.1396 30.1479ZM13.1736 23.1509C13.5256 21.7879 14.3506 21.8909 14.4806 23.1649L14.3696 26.5649H13.1096L13.1736 23.1509ZM15.2256 33.5099C14.8566 33.7169 14.5216 34.0159 14.5006 34.4079C16.0546 34.5059 17.9896 35.0309 19.0896 35.4669C19.7626 34.7739 20.1146 34.1249 21.9036 34.1179C21.4306 34.5449 20.6546 35.1409 20.3436 35.6849C20.8146 36.2709 21.5366 36.8559 22.2066 37.2779C20.7656 37.3599 20.0666 36.6079 19.1496 36.1669C18.2966 36.3809 18.1626 36.6189 16.2016 36.9139C16.4696 37.1559 16.7746 37.3969 17.1126 37.6039C16.8876 37.5999 16.6996 37.6239 16.5086 37.6449C16.2316 37.6109 15.8316 37.3839 15.3056 36.9669C15.5016 37.3259 15.7506 37.5669 16.0666 37.6639C15.7286 37.6499 15.3066 37.5569 14.6506 37.2479C13.0216 37.6809 11.3286 37.5759 8.94564 36.2979C9.34464 36.2539 9.81564 36.3679 10.3106 36.5249C9.88664 36.1769 9.40564 35.9809 8.80564 36.1189C9.31864 35.5569 10.2376 34.8779 11.5946 34.4849C12.4316 34.0739 12.8186 33.1659 15.2256 33.5099ZM11.4846 23.3989L11.5136 26.5649H10.4466L10.3866 23.6139C10.6326 22.1909 11.3286 22.1499 11.4846 23.3989ZM9.02264 23.2469L9.13464 26.5659H8.06464L7.93164 23.5849C8.14464 22.1399 8.83764 22.0189 9.02264 23.2469Z"
        fill="currentColor" />
    <path d="M27.7146 77.0332L28.1316 77.0532L27.9466 76.1172L27.7146 77.0332Z" fill="currentColor" />
    <path d="M20.7605 77.0629L21.1775 77.0439L20.9455 76.1279L20.7605 77.0629Z" fill="currentColor" />
    <path
        d="M22.9307 75.9969L22.7847 76.0009L22.8027 77.4089L22.9467 77.4049C23.0677 77.4029 23.1547 77.3819 23.2067 77.3449C23.2587 77.3069 23.2967 77.2409 23.3257 77.1479C23.3547 77.0559 23.3667 76.9079 23.3637 76.6989C23.3607 76.4249 23.3247 76.2409 23.2597 76.1419C23.1907 76.0409 23.0827 75.9919 22.9307 75.9969Z"
        fill="currentColor" />
    <path
        d="M29.9505 76.0652L29.7845 76.0532L29.7615 76.6272L29.9055 76.6382C30.0185 76.6462 30.0975 76.6252 30.1455 76.5762C30.1925 76.5272 30.2175 76.4582 30.2215 76.3752C30.2235 76.2962 30.2065 76.2242 30.1695 76.1672C30.1335 76.1062 30.0595 76.0732 29.9505 76.0652Z"
        fill="currentColor" />
    <path d="M17.8096 77.189L18.2256 77.159L17.9806 76.249L17.8096 77.189Z" fill="currentColor" />
    <path d="M39.8105 78.3329L40.2225 78.4219L40.1235 77.4619L39.8105 78.3329Z" fill="currentColor" />
    <path
        d="M47.8327 74.3461C45.7777 77.6291 32.2637 74.1821 24.4527 74.1211C13.2867 74.9061 4.64469 77.8091 0.507693 75.0851C0.424693 75.5571 0.523695 76.1591 0.690695 76.6961C3.19869 86.1521 14.5947 78.4481 24.5517 79.1091C36.1147 78.3571 45.8587 85.0271 47.9837 76.2931C48.1157 75.6161 48.0387 74.9551 47.8327 74.3461ZM6.69269 79.3881C6.64969 79.5441 6.57769 79.6761 6.47069 79.7841C6.36669 79.8901 6.22469 79.9721 6.04569 80.0281C5.73269 80.1271 5.50069 80.1141 5.35169 79.9851C5.20369 79.8591 5.09969 79.6721 5.04069 79.4241L5.57469 79.2071C5.60669 79.3231 5.64669 79.4071 5.69369 79.4581C5.76769 79.5421 5.86169 79.5661 5.96969 79.5321C6.05369 79.5051 6.11069 79.4601 6.14469 79.3961C6.18069 79.3281 6.19169 79.2621 6.18069 79.1931C6.16869 79.1291 6.13969 79.0771 6.08869 79.0381C6.03669 78.9981 5.93169 78.9811 5.77069 78.9841C5.50869 78.9861 5.3127 78.9411 5.1847 78.8471C5.05669 78.7551 4.97569 78.6091 4.94069 78.4141C4.91969 78.2831 4.92669 78.1531 4.96069 78.0211C4.99569 77.8881 5.06469 77.7731 5.16269 77.6711C5.26169 77.5711 5.4087 77.4911 5.6007 77.4321C5.8357 77.3571 6.02569 77.3601 6.16969 77.4411C6.31469 77.5231 6.41969 77.6891 6.48869 77.9411L5.95869 78.1521C5.92469 78.0451 5.88069 77.9711 5.82669 77.9341C5.77069 77.8981 5.70469 77.8911 5.62369 77.9181C5.55869 77.9371 5.51069 77.9721 5.48269 78.0211C5.45569 78.0691 5.44769 78.1231 5.45569 78.1781C5.46369 78.2181 5.48269 78.2481 5.51669 78.2721C5.54869 78.2961 5.61669 78.3071 5.72269 78.3041C5.98469 78.2981 6.17569 78.3171 6.29469 78.3581C6.41469 78.4001 6.5097 78.4661 6.5787 78.5621C6.6457 78.6581 6.69169 78.7741 6.71469 78.9111C6.74269 79.0721 6.73469 79.2301 6.69269 79.3881ZM8.68069 78.9331C8.62269 79.0811 8.54569 79.2001 8.44569 79.2911C8.34569 79.3831 8.21169 79.4481 8.04569 79.4881C7.84269 79.5361 7.67269 79.5351 7.53369 79.4881C7.39569 79.4391 7.26569 79.3231 7.14669 79.1421C7.02869 78.9631 6.94769 78.7161 6.90669 78.4021C6.85269 77.9801 6.89369 77.6381 7.0287 77.3741C7.16269 77.1081 7.37969 76.9391 7.6787 76.8661C7.91369 76.8091 8.10769 76.8311 8.25769 76.9281C8.40769 77.0251 8.53369 77.1991 8.63569 77.4521L8.14669 77.7291C8.11769 77.6561 8.09169 77.6031 8.06769 77.5701C8.02769 77.5201 7.98269 77.4821 7.93269 77.4621C7.88269 77.4391 7.82769 77.4361 7.76969 77.4511C7.63969 77.4811 7.54869 77.5771 7.49669 77.7371C7.45769 77.8561 7.45369 78.0281 7.48369 78.2561C7.51969 78.5381 7.5757 78.7241 7.6537 78.8131C7.72869 78.9031 7.82469 78.9331 7.93669 78.9061C8.04769 78.8791 8.12469 78.8171 8.16969 78.7191C8.21569 78.6211 8.24169 78.4891 8.24569 78.3231L8.77769 78.4101C8.76869 78.6121 8.73669 78.7861 8.68069 78.9331ZM9.19169 79.2271L8.89669 76.6811L9.47469 76.5551L9.77069 79.1021L9.19169 79.2271ZM10.1987 79.0261L9.96669 76.4661L11.5217 76.2071L11.5707 76.7531L10.5977 76.9161L10.6337 77.3231L11.5357 77.1711L11.5837 77.6941L10.6787 77.8441L10.7247 78.3491L11.7277 78.1821L11.7777 78.7611L10.1987 79.0261ZM13.3387 78.5621L12.5257 77.2551L12.6327 78.6641L12.0867 78.7411L11.8877 76.1781L12.4307 76.1001L13.2507 77.4181L13.1387 75.9991L13.6887 75.9201L13.8847 78.4861L13.3387 78.5621ZM15.3297 78.3641L14.7457 78.4191L14.6467 76.4831L14.0527 76.5391L14.0207 75.9041L15.7947 75.7341L15.8257 76.3691L15.2317 76.4271L15.3297 78.3641ZM16.2177 78.2811L16.0847 75.7091L16.6707 75.6521L16.8017 78.2251L16.2177 78.2811ZM18.4797 78.1261L18.3687 77.7081L17.7037 77.7551L17.6307 78.1871L17.0327 78.2301L17.6437 75.6031L18.2797 75.5571L19.0897 78.0831L18.4797 78.1261ZM21.4187 78.0151L21.3147 77.5951L20.6487 77.6251L20.5687 78.0561L19.9707 78.0841L20.6167 75.4721L21.2537 75.4431L22.0297 77.9851L21.4187 78.0151ZM23.8897 77.3111C23.8467 77.4661 23.7837 77.5931 23.7037 77.6981C23.6237 77.8011 23.5357 77.8731 23.4427 77.9091C23.3137 77.9581 23.1977 77.9841 23.0937 77.9871L22.2257 78.0071L22.1937 75.4281L23.0607 75.4091C23.2327 75.4051 23.3707 75.4331 23.4777 75.4941C23.5827 75.5551 23.6717 75.6441 23.7417 75.7611C23.8117 75.8771 23.8627 76.0131 23.8967 76.1711C23.9307 76.3271 23.9467 76.4931 23.9507 76.6691C23.9537 76.9451 23.9347 77.1601 23.8897 77.3111ZM26.6747 77.6371C26.6057 77.7751 26.5107 77.8781 26.3897 77.9471C26.2687 78.0161 26.1167 78.0491 25.9327 78.0451C25.6107 78.0371 25.3887 77.9481 25.2687 77.7761C25.1457 77.6041 25.0777 77.3891 25.0647 77.1271L25.6237 77.0931C25.6337 77.2161 25.6557 77.3111 25.6917 77.3771C25.7507 77.4821 25.8367 77.5361 25.9497 77.5381C26.0337 77.5401 26.0967 77.5171 26.1427 77.4641C26.1887 77.4111 26.2127 77.3491 26.2137 77.2811C26.2147 77.2131 26.1937 77.1531 26.1507 77.1001C26.1087 77.0451 26.0087 76.9931 25.8547 76.9431C25.5987 76.8571 25.4167 76.7501 25.3097 76.6181C25.2017 76.4851 25.1477 76.3181 25.1507 76.1161C25.1517 75.9841 25.1827 75.8581 25.2397 75.7421C25.2977 75.6261 25.3837 75.5371 25.4987 75.4711C25.6117 75.4081 25.7687 75.3771 25.9647 75.3811C26.2067 75.3861 26.3917 75.4531 26.5147 75.5781C26.6407 75.7021 26.7137 75.9011 26.7347 76.1681L26.1817 76.1981C26.1697 76.0821 26.1387 75.9971 26.0927 75.9441C26.0467 75.8911 25.9847 75.8621 25.9007 75.8601C25.8317 75.8591 25.7807 75.8761 25.7447 75.9151C25.7107 75.9541 25.6917 76.0021 25.6917 76.0571C25.6907 76.0981 25.7047 76.1361 25.7327 76.1701C25.7607 76.2051 25.8247 76.2371 25.9277 76.2691C26.1817 76.3511 26.3637 76.4321 26.4747 76.5091C26.5827 76.5881 26.6637 76.6861 26.7107 76.8021C26.7597 76.9161 26.7837 77.0431 26.7817 77.1851C26.7787 77.3461 26.7447 77.4991 26.6747 77.6371ZM28.3217 78.0461L28.2387 77.6151L27.5727 77.5841L27.4707 78.0061L26.8747 77.9771L27.6497 75.4341L28.2867 75.4651L28.9337 78.0751L28.3217 78.0461ZM30.5967 76.9901C30.4747 77.1281 30.2977 77.1901 30.0627 77.1721L29.7427 77.1491L29.7047 78.1041L29.1187 78.0621L29.2177 75.4881L30.1897 75.5561C30.3987 75.5721 30.5547 75.6511 30.6557 75.7961C30.7557 75.9411 30.8007 76.1391 30.7907 76.3931C30.7817 76.6541 30.7157 76.8521 30.5967 76.9901ZM31.6387 78.2501L31.0527 78.2081L31.1527 75.6341L31.7387 75.6761L31.6387 78.2501ZM33.7257 76.3731L32.7467 76.2801L32.7257 76.6901L33.6347 76.7761L33.6067 77.3011L32.6997 77.2151L32.6727 77.7231L33.6807 77.8181L33.6497 78.4011L32.0577 78.2491L32.1907 75.6781L33.7537 75.8261L33.7257 76.3731ZM35.7757 78.6471L35.2257 78.5831L34.6107 77.0871L34.5207 78.4991L33.9727 78.4311L34.1367 75.8641L34.6807 75.9271L35.2997 77.4321L35.3907 76.0111L35.9397 76.0781L35.7757 78.6471ZM37.9487 77.0391L37.3567 76.9411L37.1837 78.8671L36.6017 78.7721L36.7767 76.8441L36.1857 76.7451L36.2417 76.1131L38.0067 76.4071L37.9487 77.0391ZM38.0747 78.9921L38.3387 76.4381L38.9177 76.5491L38.6547 79.1021L38.0747 78.9921ZM40.3227 79.4391L40.2797 78.9981L39.6217 78.8571L39.4827 79.2571L38.8927 79.1301L39.8917 76.7331L40.5217 76.8701L40.9277 79.5691L40.3227 79.4391ZM43.1837 80.1831L42.7157 80.0481L43.0177 78.1241L42.3557 79.9421L41.9317 79.8201L41.8707 77.7921L41.5707 79.7161L41.1037 79.5811L41.4977 77.0581L42.2487 77.2771L42.3007 78.8951L42.8287 77.4431L43.5787 77.6601L43.1837 80.1831Z"
        fill="currentColor" />
    <path
        d="M27.0685 51.0892L27.1645 50.9672L27.1665 50.3632L27.1485 50.3452H21.7165L21.6685 50.3852L21.6675 50.9552L21.7875 51.0892H27.0685Z"
        fill="currentColor" />
    <path d="M22.0025 49.4199L21.9175 50.1299H26.9655L26.8525 49.4199H22.0025Z" fill="currentColor" />
    <path
        d="M25.1286 68.761L26.3746 52.085H22.5486L24.1896 68.888C24.5346 69.51 24.8426 69.461 25.1286 68.761ZM25.1986 58.485L25.4206 52.606C25.5786 52.302 25.9486 52.325 26.0066 52.609L25.2486 64.337C25.2336 64.575 24.9746 64.546 24.9776 64.362L25.1986 58.485ZM24.6626 52.726L24.8796 63.789C24.8836 64.015 24.6646 64.009 24.6526 63.836L24.4136 58.305L24.1716 52.772C24.2806 52.473 24.5926 52.464 24.6626 52.726ZM24.1226 63.166L23.5956 57.943L23.0686 52.721C23.1626 52.431 23.4746 52.408 23.5586 52.651L24.3466 63.11C24.3636 63.322 24.1446 63.329 24.1226 63.166Z"
        fill="currentColor" />
    <path
        d="M22.3405 51.9292H26.4435V51.9462L26.7945 51.6722L26.9125 51.3022H21.9685L22.0295 51.7022L22.3405 51.9292Z"
        fill="currentColor" />
    <path
        d="M6.31251 14.703H15.7005C20.3905 10.856 13.1175 7.5 13.1305 0.648999C12.9725 0.771999 12.9225 3.34 12.7545 4.835C12.6955 6.217 12.5505 7.569 12.0865 8.849C11.9415 9.322 11.4995 10.24 11.0445 10.774C10.5795 11.344 10.0065 11.775 9.29851 12.036C8.77951 12.191 8.30351 12.232 7.89251 12.114C7.69051 12.057 7.50551 11.948 7.38051 11.778C7.18451 11.513 7.11351 11.157 7.19451 10.675C7.28851 10.252 7.66751 10.047 8.07751 10.21C8.38651 10.326 8.70351 10.418 9.02751 10.481C9.71751 10.62 10.3345 10.492 10.8765 10.092C10.8765 10.092 11.3145 9.769 11.7145 8.956C11.9255 8.542 12.0905 8.103 12.1965 7.65C12.4175 6.719 12.5345 5.749 12.6385 4.783C11.2615 3.797 11.4665 0.938 10.8055 0C11.2065 7.095 -0.0854897 9.033 6.31251 14.703Z"
        fill="currentColor" />
    <path
        d="M23.1185 47.3003C23.2575 47.3533 23.4005 47.3943 23.5455 47.4233C23.8565 47.4853 24.1345 47.4273 24.3805 47.2463C24.3805 47.2463 24.5755 47.1013 24.7575 46.7353C24.8545 46.5473 24.9275 46.3503 24.9745 46.1473C25.0745 45.7253 25.1275 45.2893 25.1755 44.8543C24.5545 44.4103 24.6465 43.1203 24.3495 42.6973C24.5285 45.8963 19.4385 46.7693 22.3235 49.3263H26.5555C28.6695 47.5913 25.3915 46.0783 25.3965 42.9893C25.3255 43.0453 25.3035 44.2033 25.2285 44.8763C25.2005 45.4983 25.1365 46.1093 24.9265 46.6863C24.8615 46.8983 24.6615 47.3133 24.4565 47.5533C24.2475 47.8113 23.9885 48.0053 23.6695 48.1233C23.4345 48.1923 23.2205 48.2113 23.0355 48.1583C22.9445 48.1313 22.8605 48.0823 22.8045 48.0063C22.7155 47.8873 22.6845 47.7263 22.7205 47.5083C22.7635 47.3213 22.9345 47.2283 23.1185 47.3003Z"
        fill="currentColor" />
    <path
        d="M39.3226 75.2432C39.3216 75.2662 39.3186 75.2832 39.3176 75.3052L39.5386 75.3232L39.5826 74.3572L39.5486 74.3442L39.3566 74.2822L39.3226 75.2432Z"
        fill="currentColor" />
    <path
        d="M39.0385 75.2808L39.0525 74.1878L38.6575 74.0708L38.6665 75.0898C38.6665 75.1498 38.6615 75.1928 38.6585 75.2458L39.0385 75.2808Z"
        fill="currentColor" />
    <path
        d="M37.4216 73.7603L37.4676 75.1233L38.1586 75.1963L38.1336 73.9303L37.6546 73.8123L37.4216 73.7603Z"
        fill="currentColor" />
    <path
        d="M38.1567 80.7419L37.3127 80.6059L37.0757 80.5659L37.1557 81.9059C37.9257 83.2929 38.6117 83.1809 39.2517 81.6199L39.2847 80.9019L38.9797 80.8619L38.1567 80.7419Z"
        fill="currentColor" />
    <path d="M36.7425 75.0431L36.9475 75.0661L36.8855 73.6441L36.6575 73.5981L36.7425 75.0431Z"
        fill="currentColor" />
    <path
        d="M24.5526 79.3831L23.7026 79.3481L23.8556 81.9081C24.6256 83.2941 25.3116 83.1821 25.9496 81.6201L26.0546 79.3291L25.6376 79.3321L24.5526 79.3831Z"
        fill="currentColor" />
    <path
        d="M48.6957 97.6172V99.8412H39.4417V87.7022H42.4677V97.6172H48.6957ZM32.8897 95.3252L30.9337 90.6062L29.1537 95.3252H32.8897ZM32.6477 87.7022L38.0337 99.8412H34.7837L33.7827 97.4422H28.3527L27.4527 99.8412H24.2457L29.1377 87.7022H32.6477ZM24.2257 87.7022V89.9262H18.8917V92.6372H24.2257V94.8602H18.8917V99.8402H15.8677V87.7012H24.2257V87.7022ZM10.2197 87.7022H13.2447V94.5922C13.2447 96.3662 12.7197 97.7092 11.6717 98.6262C10.6237 99.5382 9.12569 99.9982 7.17969 99.9982C5.25469 99.9982 3.76369 99.5322 2.70069 98.6062C1.63669 97.6782 1.10669 96.3472 1.10669 94.6082V87.7012H4.13669V94.6802C4.13669 95.5262 4.41669 96.2022 4.96769 96.7112C5.52269 97.2222 6.24669 97.4762 7.14569 97.4762C8.07969 97.4762 8.82269 97.2152 9.38169 96.6942C9.94069 96.1752 10.2197 95.4332 10.2197 94.4712V87.7022Z"
        fill="currentColor" />
</svg>    