<svg width="257" height="257" viewBox="0 0 257 257" fill="none" xmlns="http://www.w3.org/2000/svg">
    <style>
        path {
        fill: #0f172a;
        }
        @media (prefers-color-scheme: dark) {
        path {
        fill: #f8fafc;
        }
        }
    </style>
    <path
        d="M43.4657 214.175C37.599 214.175 32.5768 212.086 28.399 207.908C24.2212 203.73 22.1323 198.708 22.1323 192.841V156.841C22.1323 154.886 22.7545 153.197 23.999 151.775C25.2434 150.353 26.8434 149.464 28.799 149.108C33.0657 147.686 36.5768 145.108 39.3323 141.375C42.0879 137.641 43.4657 133.464 43.4657 128.841C43.4657 124.219 42.0879 120.041 39.3323 116.308C36.5768 112.575 33.0657 109.997 28.799 108.575C26.8434 108.219 25.2434 107.33 23.999 105.908C22.7545 104.486 22.1323 102.797 22.1323 100.841V64.8414C22.1323 58.9747 24.2212 53.9525 28.399 49.7747C32.5768 45.5969 37.599 43.5081 43.4657 43.5081H214.132C219.999 43.5081 225.021 45.5969 229.199 49.7747C233.377 53.9525 235.466 58.9747 235.466 64.8414V100.841C235.466 102.797 234.843 104.486 233.599 105.908C232.355 107.33 230.755 108.219 228.799 108.575C224.532 109.997 221.021 112.575 218.266 116.308C215.51 120.041 214.132 124.219 214.132 128.841C214.132 133.464 215.51 137.641 218.266 141.375C221.021 145.108 224.532 147.686 228.799 149.108C230.755 149.464 232.355 150.353 233.599 151.775C234.843 153.197 235.466 154.886 235.466 156.841V192.841C235.466 198.708 233.377 203.73 229.199 207.908C225.021 212.086 219.999 214.175 214.132 214.175H43.4657ZM43.4657 192.841H214.132V165.641C207.555 161.73 202.355 156.53 198.532 150.041C194.71 143.553 192.799 136.486 192.799 128.841C192.799 121.197 194.71 114.13 198.532 107.641C202.355 101.153 207.555 95.9525 214.132 92.0414V64.8414H43.4657V92.0414C50.0434 95.9525 55.2434 101.153 59.0657 107.641C62.8879 114.13 64.799 121.197 64.799 128.841C64.799 136.486 62.8879 143.553 59.0657 150.041C55.2434 156.53 50.0434 161.73 43.4657 165.641V192.841ZM128.799 182.175C131.821 182.175 134.355 181.153 136.399 179.108C138.443 177.064 139.466 174.53 139.466 171.508C139.466 168.486 138.443 165.953 136.399 163.908C134.355 161.864 131.821 160.841 128.799 160.841C125.777 160.841 123.243 161.864 121.199 163.908C119.155 165.953 118.132 168.486 118.132 171.508C118.132 174.53 119.155 177.064 121.199 179.108C123.243 181.153 125.777 182.175 128.799 182.175ZM128.799 139.508C131.821 139.508 134.355 138.486 136.399 136.441C138.443 134.397 139.466 131.864 139.466 128.841C139.466 125.819 138.443 123.286 136.399 121.241C134.355 119.197 131.821 118.175 128.799 118.175C125.777 118.175 123.243 119.197 121.199 121.241C119.155 123.286 118.132 125.819 118.132 128.841C118.132 131.864 119.155 134.397 121.199 136.441C123.243 138.486 125.777 139.508 128.799 139.508ZM128.799 96.8414C131.821 96.8414 134.355 95.8192 136.399 93.7747C138.443 91.7303 139.466 89.1969 139.466 86.1747C139.466 83.1525 138.443 80.6192 136.399 78.5747C134.355 76.5303 131.821 75.5081 128.799 75.5081C125.777 75.5081 123.243 76.5303 121.199 78.5747C119.155 80.6192 118.132 83.1525 118.132 86.1747C118.132 89.1969 119.155 91.7303 121.199 93.7747C123.243 95.8192 125.777 96.8414 128.799 96.8414Z"
        fill="#0f172a" />
</svg>